<?xml version="1.0" standalone="no"?><!DOCTYPE svg PUBLIC "-//W3C//DTD SVG 1.1//EN" "http://www.w3.org/Graphics/SVG/1.1/DTD/svg11.dtd"><svg t="1724668590334" class="icon" viewBox="0 0 1024 1024" version="1.1" xmlns="http://www.w3.org/2000/svg" p-id="1416" xmlns:xlink="http://www.w3.org/1999/xlink" width="200" height="200"><path d="M426.73948445 198.76636445c-14.28593778 14.27569778-14.28593778 37.51708445 0 51.79278222 14.27683555 14.28593778 37.50684445 14.28593778 51.79278222 0 14.27569778-14.27569778 14.27569778-37.51708445 0-51.79278222-14.28593778-14.27569778-37.51594667-14.27569778-51.79278222 0zM587.42670222 831.15121778c14.27569778-14.27797333 14.27569778-37.50684445 0-51.78254223-13.53955555-13.54183111-35.13344-14.23815111-49.50926222-2.10488888a21.86467555 21.86467555 0 0 1-1.86709333 2.12423111 22.98766222 22.98766222 0 0 1-2.28238222 2.00476444c-12.38016 14.37582222-11.76462222 36.13582222 1.85571555 49.75729778 14.28707555 14.27683555 37.51822222 14.27683555 51.80302222 0.00113778z" p-id="1417"></path><path d="M512.47445333 47.33610667c-258.26417778 0-467.62666667 209.35224889-467.62666666 467.62666666 0 258.25507555 209.36248889 467.62666667 467.62666666 467.62666667 258.25507555 0 467.62666667-209.37159111 467.62666667-467.62666667-0.00113778-258.27441778-209.37272889-467.62666667-467.62666667-467.62666666z m269.82968889 625.31015111c-19.87584 19.89518222-46.30186667 30.81557333-74.41749333 30.77575111-28.05304889-0.03982222-54.46200889-11.02051555-74.33557334-30.91342222L498.38762667 537.35537778l-44.9024-44.9024-93.05088-93.04064c-23.97525333-23.98549333-62.93162667-24.04465778-86.83633778-0.13880889-23.89560889 23.90584889-23.83530667 62.86108445 0.13880889 86.8352L522.54037333 734.91342222c30.57777778-16.91761778 69.93123555-12.42908445 95.83957334 13.48039111 31.37080889 31.35146667 31.37080889 82.37966222 0 113.73112889-31.35146667 31.35146667-82.35804445 31.35146667-113.71975112 0-26.05852445-26.07104-30.45831111-65.69984-13.1936711-96.35726222l-248.6943289-248.68408889c-19.88608-19.89404445-30.86449778-46.30186667-30.90432-74.35719111-0.05006222-28.10424889 10.88056889-54.53141333 30.76551112-74.41635555 19.89404445-19.88494222 46.32120889-30.81443555 74.41635555-30.77575112 28.06556445 0.05006222 54.47224889 11.02051555 74.34695111 30.90432l93.05088 93.05088 44.9024 44.89216 135.17368889 135.17255112c23.96501333 23.98663111 62.92024889 24.04465778 86.82723556 0.13994666 23.90471111-23.90698667 23.84440889-62.86222222-0.13994667-86.84657778l-259.75352889-259.75466666c-30.55616 16.82773333-69.81973333 12.30961778-95.69166222-13.57141334-31.35146667-31.35146667-31.35146667-82.36942222 0-113.71975111 31.36056889-31.35146667 82.37852445-31.35146667 113.72999111 0 26.10858667 26.09948445 30.46627555 65.83978667 13.10378667 96.50517333l259.584 259.58627556c19.87584 19.87584 30.85539555 46.28252445 30.89521777 74.33784889 0.04096 28.11335111-10.87829333 54.54279111-30.77461333 74.41521778z" p-id="1418"></path></svg>