<?xml version="1.0" standalone="no"?><!DOCTYPE svg PUBLIC "-//W3C//DTD SVG 1.1//EN" "http://www.w3.org/Graphics/SVG/1.1/DTD/svg11.dtd"><svg t="1724745580447" class="icon" viewBox="0 0 1024 1024" version="1.1" xmlns="http://www.w3.org/2000/svg" p-id="2342" xmlns:xlink="http://www.w3.org/1999/xlink" width="200" height="200"><path d="M0 0h1024v1024H0z" fill="#FFFFFF" fill-opacity="0" p-id="2343"></path><path d="M705.908 539.998c34.142 9.148 54.403 44.242 45.255 78.384l-72.21 269.493c-34.143-9.148-54.404-44.242-45.256-78.384l72.211-269.493z m-151.252 32.595c24.993 24.994 24.993 65.516 0 90.51L495.259 722.5l59.397 59.397c24.743 24.744 24.99 64.707 0.742 89.755l-0.742 0.755L438.69 756.44c-18.557-18.558-18.743-48.53-0.556-67.316l0.556-0.566 115.966-115.966z m274.255 0L944.876 688.56c18.558 18.558 18.743 48.53 0.557 67.316l-0.557 0.566-115.965 115.966c-24.994-24.994-24.994-65.517 0-90.51l59.396-59.398-59.396-59.396c-24.994-24.994-24.994-65.516 0-90.51zM832 160c17.673 0 32.001 14.327 32.001 32v336.465c-18.104-7.096-37.927-8.485-56.703-4.164-12.49-17.943-31.145-31.739-53.916-37.84-50.7-13.585-102.8 16.066-117.152 66.352l-0.423 1.53-2.325 8.682a96.583 96.583 0 0 0-10.944-13.06c-37.115-37.114-97.06-37.486-134.633-1.113l-1.131 1.114-93.522 93.521-0.92 0.936-1.443 1.511c-40.813 43.535-40.289 111.565 1.274 154.47l1.272 1.292L455.74 864H96c-17.673 0-32-14.327-32-32V192c0-17.673 14.327-32 32-32h736z m-32 128H192c-34.993 0-63.426 28.084-63.991 62.942L128 352h608c34.993 0 63.426-28.084 63.991-62.942L800 288z m-640-96c-17.673 0-32 14.327-32 32 0 17.673 14.327 32 32 32 17.673 0 32-14.327 32-32 0-17.673-14.327-32-32-32z m128 0c-17.673 0-32 14.327-32 32 0 17.673 14.327 32 32 32 17.673 0 32-14.327 32-32 0-17.673-14.327-32-32-32z m128 0c-17.673 0-32 14.327-32 32 0 17.673 14.327 32 32 32 17.673 0 32-14.327 32-32 0-17.673-14.327-32-32-32z" fill="#666666" p-id="2344"></path></svg>