<?xml version="1.0" standalone="no"?><!DOCTYPE svg PUBLIC "-//W3C//DTD SVG 1.1//EN" "http://www.w3.org/Graphics/SVG/1.1/DTD/svg11.dtd"><svg t="1724662882467" class="icon" viewBox="0 0 1024 1024" version="1.1" xmlns="http://www.w3.org/2000/svg" p-id="2294" xmlns:xlink="http://www.w3.org/1999/xlink" width="200" height="200"><path d="M40.67299907 40.67299907h403.57374454v403.57374454H40.67299907zM579.75325639 579.75325639h403.57374454v403.57374454H579.75325639zM40.67299907 579.75325639h403.57374454v403.57374454H40.67299907zM579.75325639 53.29719822V133.46550237h63.33456574v-29.45793756h50.07849386v-63.33456574h-113.4130596zM734.40742858 40.67299907h114.88595645v63.33456574h-114.88595645zM890.53449763 40.67299907v63.33456574h29.45793756v50.07849386h63.33456574v-113.4130596h-63.1239415zM713.78687227 380.91217787h113.41305961v63.33456574h-113.41305961zM919.99243519 196.80006812h63.33456574v113.41305961h-63.33456574zM579.75325639 174.70661497h63.33456574v114.88595645h-63.33456574zM643.08782213 330.83368401h-63.33456574v113.4130596h94.26540018v-63.33456574h-30.93083444zM919.99243519 380.91217787h-50.07849386v63.33456574h113.4130596v-92.79250331h-63.33456574z" p-id="2295"></path></svg>