<?xml version="1.0" standalone="no"?><!DOCTYPE svg PUBLIC "-//W3C//DTD SVG 1.1//EN" "http://www.w3.org/Graphics/SVG/1.1/DTD/svg11.dtd"><svg t="1724662923929" class="icon" viewBox="0 0 1024 1024" version="1.1" xmlns="http://www.w3.org/2000/svg" p-id="2735" xmlns:xlink="http://www.w3.org/1999/xlink" width="200" height="200"><path d="M896.88405333 487.25333332H815.78666667v-67.12888888h-14.79111112v-76.23111112h-14.7911111v76.23111112h-13.65333334v67.12888888H127.11594667C79.16999111 487.25333332 39.82222222 527.00728888 39.82222222 574.95210666v188.10197333C39.82222222 811.00117332 79.16999111 849.06666666 127.11594667 849.06666666h769.76810666c47.94595555 0 87.29372445-38.06549333 87.29372445-86.01258667V574.95210666C984.17777778 527.00728888 944.83000889 487.25333332 896.88405333 487.25333332zM219.59111111 729.59999999h-34.13333333V607.85777777h34.13333333v121.74222222z m67.12888889 0h-35.27111111V607.85777777h35.27111111v121.74222222z m65.99111111 0h-35.27111111V607.85777777h35.27111111v121.74222222z m67.12888889 0h-35.27111111V607.85777777h35.27111111v121.74222222z m67.12888889 0h-35.27111111V607.85777777h35.27111111v121.74222222z m291.26428444 7.41148445c-39.95761778 0-72.34787555-32.38798222-72.34787555-72.34901334 0-39.95534222 32.39025778-72.34673778 72.34787555-72.34673778 39.95648 0 72.34673778 32.39139555 72.34673778 72.34673778 0 39.96103111-32.39025778 72.34901333-72.34673778 72.34901334zM791.89333333 265.98399999c-19.57319111 0-37.632 8.79047111-49.54794666 24.34730667-8.39224889 10.96021333-12.82844445 23.97980445-12.82844445 37.63313778h22.75555556c0-7.96444445 2.81486222-16.90965333 8.13966222-23.86375112 7.57304889-9.88842667 19.04753778-15.36113778 31.48117333-15.36113778 12.43477333 0 23.90926222 5.53984 31.48231112 15.4271289 5.3248 6.95409778 8.13852445 15.83331555 8.13852444 23.79776h22.75555556c0-13.65333333-4.43505778-26.73891555-12.82730667-37.69799112-11.91480889-15.55797333-29.97475555-24.28245333-49.54908445-24.28245333z" p-id="2736"></path><path d="M791.89333333 207.81397332c49.37159111 0 93.70055111 29.51964445 112.93582222 74.99434667 6.38748445 15.10286222 9.62673778 31.50279111 9.62673778 47.43168h22.75555556c0-19.34222222-3.84341333-38.50922667-11.42442667-56.43264-22.80334222-53.9136-75.35957333-88.61354667-133.89368889-88.61354667-80.12913778 0-145.31811555 65.40174222-145.31811555 145.04618667h22.75555555c0-67.12888889 54.98197333-122.42602667 122.56256-122.42602667z" p-id="2737"></path></svg>